<svg class="SVGInline-svg SVGInline--cleaned-svg social__logo-svg" viewBox="0 0 20 20" xmlns="http://www.w3.org/2000/svg" fill="#fff"><path d="M17.917 0H2.083A2.086 2.086 0 0 0 0 2.083v15.834C0 19.065.935 20 2.083 20h9.167c.23 0 .417-.187.417-.417v-7.5a.417.417 0 0 0-.417-.416H9.167V10h2.083c.23 0 .417-.187.417-.417v-2.5a3.755 3.755 0 0 1 3.75-3.75h1.25V5h-1.25a2.086 2.086 0 0 0-2.084 2.083v2.5c0 .23.187.417.417.417h2.755l-.556 1.667H13.75a.417.417 0 0 0-.417.416v7.5c0 .23.187.417.417.417h4.167A2.086 2.086 0 0 0 20 17.917V2.083A2.086 2.086 0 0 0 17.917 0z" fill-rule="nonzero"/></svg>