<svg class="SVGInline-svg SVGInline--cleaned-svg social__logo-svg" viewBox="0 0 20 19" xmlns="http://www.w3.org/2000/svg" fill="#fff"><path d="M20 2.25a7.274 7.274 0 0 1-2.356.754c.848-.593 1.498-1.533 1.804-2.653a7.528 7.528 0 0 1-2.607 1.163C16.094.582 15.027 0 13.846 0c-2.264 0-4.101 2.148-4.101 4.796 0 .376.035.741.105 1.093-3.41-.2-6.433-2.108-8.458-5.013a5.424 5.424 0 0 0-.555 2.413c0 1.664.724 3.132 1.825 3.993a3.665 3.665 0 0 1-1.859-.599v.06c0 2.324 1.415 4.263 3.293 4.702a3.466 3.466 0 0 1-1.081.17c-.265 0-.523-.03-.773-.086.523 1.905 2.037 3.292 3.833 3.33-1.404 1.287-3.174 2.054-5.096 2.054-.331 0-.659-.022-.979-.066C1.816 18.205 3.974 19 6.29 19c7.548 0 11.674-7.308 11.674-13.647 0-.208-.003-.417-.01-.621A9.215 9.215 0 0 0 20 2.249" fill-rule="evenodd"/></svg>