<svg class="SVGInline-svg SVGInline--cleaned-svg social__logo-svg" viewBox="0 0 19 20" xmlns="http://www.w3.org/2000/svg" fill="#fff"><path d="M19 20h-4.2v-7.03c0-1.841-.656-3.097-2.1-3.097-1.105 0-1.72.847-2.006 1.664-.107.294-.09.702-.09 1.11V20h-4.16s.053-12.454 0-13.586h4.16v2.132c.245-.933 1.575-2.263 3.696-2.263 2.632 0 4.7 1.954 4.7 6.162V20zM2.236 4.714H2.21C.87 4.714 0 3.675 0 2.36 0 1.017.895 0 2.262 0c1.366 0 2.206 1.014 2.233 2.355 0 1.317-.867 2.36-2.259 2.36zm1.947 1.7V20H.479V6.414h3.704z" fill-rule="evenodd"/></svg>